<?xml version="1.0" encoding="utf-8"?>
<!-- Generator: Adobe Illustrator 26.5.0, SVG Export Plug-In . SVG Version: 6.00 Build 0)  -->
<svg version="1.1" id="Layer_1" xmlns="http://www.w3.org/2000/svg" xmlns:xlink="http://www.w3.org/1999/xlink" x="0px" y="0px"
	 viewBox="0 0 1080 1080" style="enable-background:new 0 0 1080 1080;" xml:space="preserve">
<style type="text/css">
	.st0{fill:#FFFFFF;}
</style>
<g>
	<path class="st0" d="M765.2,497.2c0-3,0-5.3,0-7.7c0.2-22.1,0.2-44.2,0.5-66.3c0.2-13.4,0.5-26.7,1.1-40.1
		c0.3-5.3,0.8-10.9,2.7-15.7c3.2-8.2,11-10.9,19-11.8c5.5-0.7,11.3-0.6,16.8,0c5.2,0.5,10.4,2,15.5,3.4c2.8,0.8,2.8,3.4,2.8,5.9
		c0.2,18,0.5,36,0.5,54c0.1,51.2,0.1,102.5,0,153.7c0,12.1-0.2,24.3-1.6,36.3c-4.7,40.1-21.5,73.4-56.2,96
		c-9,5.9-18.6,10.7-29.1,13.3c-8,2-16.2,3.1-24.3,4.9c-12.9,2.9-25.9,1.6-38.8,1.1c-8.8-0.4-17.6-3.6-26.3-5.8
		c-11.3-2.9-21.7-7.9-31.5-14.2c-23.4-15.1-40.4-35.5-50.1-61.8c-2.9-7.9-5.5-15.8-6.2-24.2c-0.8-8.5-2.7-16.9-2.7-25.4
		c0-8.3,1.4-16.7,3-25c1.6-8.5,3.4-17.2,6.5-25.2c7.1-18.4,18.2-34.3,32.8-47.8c10.9-10.1,23.4-17.6,37.1-23
		c7.1-2.8,14.6-5.5,22.2-6.4c10.3-1.3,20.9-0.8,31.4-1c2.8,0,5.7,0.8,8.6,0.6c10.9-0.5,20.8,3.2,30.5,7.4
		c12.9,5.6,24.4,13.4,34.3,23.5C764,496.3,764.4,496.6,765.2,497.2z M688.7,671.9c14.5-0.3,26-2.5,36.9-7.7
		c23.5-11.3,35.8-30.9,39.3-55.8c1.7-12.5,1.5-25.4-2.4-38c-3-9.7-6.6-18.8-12.8-26.9c-13.9-17.9-32-27.5-54.6-28.2
		c-6-0.2-12.1,0.8-18.2,1.5c-3.3,0.4-6.8,0.6-9.7,1.9c-17.3,7.4-31.7,18-40.5,35.4c-5.6,11.2-8.5,22.8-8.7,35.2
		c0,4.1-0.4,8.3,0.1,12.4c0.8,7.6,1.5,15.2,4.5,22.4C635.2,654.7,658.5,669.8,688.7,671.9z"/>
	<path class="st0" d="M382.3,435.8c-19.7,0-39,0.1-58.4,0c-15.5-0.1-31-0.3-46.5-0.6c-9.8-0.2-18.5-8-20.5-17.6
		c-2.4-11-1.2-21.5,3.4-31.8c1.4-3.1,3.1-5.1,6.9-5.2c5.5-0.2,10.9-1.2,16.4-1.2c83.6-0.1,167.2,0,250.9,0.1c7,0,14,0.6,20.8,1.6
		c8.3,1.1,15.5,9.8,16.8,17c0.6,3.4,1.8,6.8,1.5,10.2c-0.6,7.6-2,15.1-5.2,22.1c-1.8,3.8-5,5.3-9.1,5.4c-8.5,0-17,0.3-25.5,0.3
		c-28.5,0-57,0-85.5,0c-4.9,0-4.9,0-4.9,5c0,89.6,0,179.2,0,268.9c0,1.5,0,3,0,4.5c0,2.4-1,3.7-3.6,3.7c-16.9,0-33.7,0.1-50.6-0.1
		c-5.8-0.1-6.4-1.1-6.5-7c0-90.5-0.1-181-0.1-271.5C382.5,438.6,382.4,437.8,382.3,435.8z"/>
</g>
</svg>
